<svg width="32" height="32" viewBox="0 0 32 32" fill="none" xmlns="http://www.w3.org/2000/svg">
<g clip-path="url(#clip0_1414_27037)">
<path d="M5.68204 8.2401L17.9401 1.81931C18.3621 1.59799 18.8827 1.59799 19.3047 1.81931L27.0263 5.86345C27.8022 6.26984 27.9434 7.23331 27.3112 7.80922L24.6936 10.1958C24.2571 10.5937 23.5802 10.6756 23.044 10.3945L19.3187 8.44306C18.8874 8.21703 18.3564 8.21703 17.9256 8.44306L5 15.2815V9.31188C5 8.8697 5.26005 8.46096 5.68204 8.2401Z" fill="#FA8C16"/>
<path d="M27.0543 25.4289L19.3047 29.4881C18.8827 29.7094 18.3626 29.7094 17.9401 29.4881L5.68204 23.0673C5.26005 22.8464 5 22.4377 5 21.9955V16.581L11.3164 13.2593V18.6869C11.3164 19.1291 11.5765 19.5379 11.9985 19.7587L17.9401 22.8709C18.3621 23.0922 18.8822 23.0922 19.3047 22.8709L23.0643 20.9016C23.5989 20.6214 24.2747 20.7019 24.7112 21.0984L27.3372 23.4807C27.972 24.0567 27.8318 25.0215 27.0543 25.4289Z" fill="black"/>
</g>
<defs>
<clipPath id="clip0_1414_27037">
<rect width="22.7368" height="28" fill="white" transform="translate(5 1.65381)"/>
</clipPath>
</defs>
</svg>
