<svg width="32" height="32" viewBox="0 0 32 32" fill="none" xmlns="http://www.w3.org/2000/svg">
<path d="M3.99984 4C3.26346 4 2.6665 4.59696 2.6665 5.33333V13.3333C2.6665 14.0697 3.26346 14.6667 3.99984 14.6667H13.3332C14.0696 14.6667 14.6665 14.0697 14.6665 13.3333V5.33333C14.6665 4.59696 14.0696 4 13.3332 4H3.99984ZM5.33317 12V6.66667H11.9998V12H5.33317ZM3.99984 17.3333C3.26346 17.3333 2.6665 17.9303 2.6665 18.6667V26.6667C2.6665 27.4031 3.26346 28 3.99984 28H13.3332C14.0696 28 14.6665 27.4031 14.6665 26.6667V18.6667C14.6665 17.9303 14.0696 17.3333 13.3332 17.3333H3.99984ZM5.33317 25.3333V20H11.9998V25.3333H5.33317ZM17.3332 5.33333C17.3332 4.59696 17.9301 4 18.6665 4H27.9998C28.7362 4 29.3332 4.59696 29.3332 5.33333V13.3333C29.3332 14.0697 28.7362 14.6667 27.9998 14.6667H18.6665C17.9301 14.6667 17.3332 14.0697 17.3332 13.3333V5.33333ZM19.9998 6.66667V12H26.6665V6.66667H19.9998ZM18.6665 17.3333C17.9301 17.3333 17.3332 17.9303 17.3332 18.6667V26.6667C17.3332 27.4031 17.9301 28 18.6665 28H27.9998C28.7362 28 29.3332 27.4031 29.3332 26.6667V18.6667C29.3332 17.9303 28.7362 17.3333 27.9998 17.3333H18.6665ZM19.9998 25.3333V20H26.6665V25.3333H19.9998Z" fill="#141721"/>
</svg>
