<svg width="189" height="28" viewBox="0 0 189 28" fill="none" xmlns="http://www.w3.org/2000/svg">
<path d="M0 23.9883V4L13.2398 13.9942L0 23.9883ZM13.2398 13.9942L26.4796 23.9883V4L13.2398 13.9942ZM47.18 20.1339H44.8961L43.8783 16.521H39.6168L38.599 20.1339H36.4111L40.3251 6.64679H43.2627L47.1784 20.1339H47.18ZM43.4745 14.7437L41.8229 8.83052H41.6689L40.0173 14.7437H43.4729H43.4745ZM58.7466 15.1502C58.7466 16.8758 58.4007 18.1767 57.7106 19.0529C57.0188 19.929 56.0921 20.3671 54.927 20.3671C54.1971 20.3671 53.5897 20.1956 53.1032 19.8558C52.6166 19.5143 52.226 19.0412 51.9314 18.4349H51.8156V24H49.7237V10.1631H51.8156V11.8637H51.9314C52.226 11.2591 52.6166 10.7844 53.1032 10.4429C53.5897 10.1014 54.1971 9.93154 54.927 9.93154C56.0921 9.93154 57.0188 10.3696 57.7106 11.2458C58.4024 12.1219 58.7466 13.4228 58.7466 15.1485V15.1502ZM56.5389 14.339C56.5389 13.5278 56.3237 12.8765 55.8951 12.3868C55.4665 11.8971 54.8558 11.6522 54.0614 11.6522C53.7536 11.6522 53.4656 11.6905 53.1975 11.7688C52.9294 11.8471 52.6911 11.962 52.4875 12.1169C52.2823 12.2718 52.1201 12.4617 51.9976 12.6866C51.8752 12.9115 51.8156 13.1796 51.8156 13.4878V16.8109C51.8156 17.1207 51.8768 17.3872 51.9976 17.6121C52.1185 17.8369 52.2823 18.0268 52.4875 18.1817C52.6927 18.3366 52.9294 18.4516 53.1975 18.5299C53.4656 18.6081 53.7536 18.6465 54.0614 18.6465C54.8541 18.6465 55.4665 18.4016 55.8951 17.9119C56.3237 17.4222 56.5389 16.7726 56.5389 15.9597V14.3373V14.339ZM61.1679 20.1356H69.8068V18.4166H66.6392V10.1631H61.1679V11.8821H64.5473V18.4133H61.1679V20.1323V20.1356ZM66.7071 8.02099C66.9189 7.80278 67.0232 7.53127 67.0232 7.20979V6.80336C67.0232 6.48189 66.9172 6.21038 66.7071 5.99217C66.4952 5.77397 66.1212 5.66403 65.5833 5.66403C65.0455 5.66403 64.6913 5.77397 64.4795 5.99217C64.2676 6.21204 64.1634 6.48189 64.1634 6.80336V7.20979C64.1634 7.53127 64.2693 7.80278 64.4795 8.02099C64.6913 8.24086 65.0653 8.34913 65.6032 8.34913C66.1411 8.34913 66.4952 8.23919 66.7071 8.02099ZM71.8573 20.1356H80.5162V18.4166H77.2327V5.8356H71.8573V7.55459H75.1408V18.4133H71.8573V20.1323V20.1356ZM82.565 20.1356H91.2239V18.4166H87.9404V5.8356H82.565V7.55459H85.8485V18.4133H82.565V20.1323V20.1356ZM101.932 15.1502C101.932 15.9497 101.822 16.6709 101.606 17.3139C101.387 17.9585 101.078 18.5049 100.674 18.9563C100.27 19.4077 99.7784 19.7558 99.1959 19.999C98.6133 20.2439 97.9579 20.3655 97.2281 20.3655C96.4983 20.3655 95.8429 20.2422 95.2603 19.999C94.6778 19.7541 94.1846 19.406 93.7824 18.9563C93.3786 18.5049 93.0691 17.9585 92.8507 17.3139C92.6322 16.6693 92.5247 15.948 92.5247 15.1502C92.5247 14.3523 92.6339 13.631 92.8507 12.9864C93.0675 12.3418 93.3786 11.7955 93.7824 11.344C94.1863 10.8926 94.6778 10.5462 95.2603 10.3013C95.8429 10.0565 96.4983 9.93487 97.2281 9.93487C97.9579 9.93487 98.6133 10.0581 99.1959 10.3013C99.7784 10.5462 100.272 10.8943 100.674 11.344C101.078 11.7955 101.387 12.3418 101.606 12.9864C101.822 13.631 101.932 14.3523 101.932 15.1502ZM99.7437 14.3973C99.7437 13.4695 99.5169 12.7716 99.0618 12.3002C98.6067 11.8304 97.996 11.5956 97.2281 11.5956C96.4602 11.5956 95.8495 11.8304 95.3944 12.3002C94.9393 12.7699 94.7125 13.4695 94.7125 14.3973V15.9047C94.7125 16.8325 94.9393 17.5304 95.3944 18.0018C95.8478 18.4716 96.4602 18.7064 97.2281 18.7064C97.996 18.7064 98.6067 18.4716 99.0618 18.0018C99.5153 17.5321 99.7437 16.8325 99.7437 15.9047V14.3973ZM106.703 20.1356V13.3712C106.703 13.088 106.764 12.8365 106.885 12.6183C107.006 12.4001 107.17 12.2185 107.375 12.077C107.58 11.9354 107.81 11.8288 108.067 11.7588C108.323 11.6888 108.585 11.6522 108.854 11.6522C110.223 11.6522 110.908 12.4451 110.908 14.0291V20.1356H113V13.7177C113 12.5067 112.692 11.5722 112.078 10.916C111.464 10.2597 110.658 9.92987 109.659 9.92987C109.248 9.92987 108.891 9.98151 108.583 10.0848C108.275 10.1881 108.007 10.3263 107.777 10.4995C107.547 10.6728 107.352 10.8793 107.191 11.1175C107.031 11.3557 106.9 11.6039 106.797 11.8621H106.701V10.1614H104.609V20.1323H106.701L106.703 20.1356Z" fill="#06080F"/>
<path d="M182.945 21.0625C182.945 21.0781 183.109 20.9844 183.438 20.7812C183.781 20.5781 184.18 20.3125 184.633 19.9844C185.102 19.6406 185.578 19.2734 186.062 18.8828C186.547 18.4766 186.945 18.0938 187.258 17.7344C187.57 17.375 187.734 17.0703 187.75 16.8203C187.781 16.5547 187.57 16.3828 187.117 16.3047C186.555 16.2266 186.078 16.2344 185.688 16.3281C185.312 16.4219 184.969 16.5312 184.656 16.6562C184.344 16.7812 184.047 16.8984 183.766 17.0078C183.5 17.1172 183.203 17.1562 182.875 17.125C182.188 17.125 181.711 16.9141 181.445 16.4922C181.195 16.0547 181.07 15.4688 181.07 14.7344C181.07 14 181.234 13.3047 181.562 12.6484C181.891 11.9766 182.312 11.3984 182.828 10.9141C183.344 10.4297 183.938 10.0469 184.609 9.76562C185.281 9.46875 185.969 9.32031 186.672 9.32031C186.953 9.32031 187.195 9.34375 187.398 9.39062C187.602 9.4375 187.703 9.61719 187.703 9.92969C187.703 10.1484 187.609 10.3594 187.422 10.5625C187.234 10.75 187.023 10.8438 186.789 10.8438C186.773 10.8438 186.734 10.8359 186.672 10.8203C186.609 10.7891 186.547 10.75 186.484 10.7031C186.422 10.6562 186.359 10.625 186.297 10.6094C186.234 10.5781 186.195 10.5625 186.18 10.5625C185.68 10.4219 185.195 10.4922 184.727 10.7734C184.258 11.0547 183.836 11.4375 183.461 11.9219C183.102 12.3906 182.812 12.9062 182.594 13.4688C182.375 14.0156 182.266 14.5078 182.266 14.9453C182.266 15.1172 182.297 15.2578 182.359 15.3672C182.438 15.4609 182.531 15.5312 182.641 15.5781C182.766 15.625 182.898 15.6562 183.039 15.6719C183.195 15.6719 183.352 15.6719 183.508 15.6719C183.82 15.6719 184.133 15.625 184.445 15.5312C184.773 15.4375 185.086 15.3281 185.383 15.2031C185.695 15.0781 186.008 14.9688 186.32 14.875C186.648 14.7812 186.984 14.7344 187.328 14.7344C187.484 14.7344 187.656 14.7812 187.844 14.875C188.031 14.9531 188.203 15.0781 188.359 15.25C188.516 15.4062 188.648 15.5938 188.758 15.8125C188.867 16.0156 188.93 16.2422 188.945 16.4922C189.039 16.7109 189.008 17 188.852 17.3594C188.711 17.7188 188.492 18.1016 188.195 18.5078C187.898 18.9141 187.539 19.3281 187.117 19.75C186.695 20.1562 186.273 20.5312 185.852 20.875C185.43 21.2031 185.016 21.4688 184.609 21.6719C184.203 21.8906 183.859 21.9922 183.578 21.9766C183.266 21.9766 183.078 21.8828 183.016 21.6953C182.969 21.5078 182.945 21.2969 182.945 21.0625Z" fill="#FF6188"/>
<path d="M175.281 11.4058C175.125 11.4839 174.977 11.5698 174.836 11.6636C174.711 11.7417 174.586 11.8198 174.461 11.8979C174.336 11.9604 174.211 12.0073 174.086 12.0386C173.961 12.0698 173.828 12.0698 173.688 12.0386C173.594 12.0386 173.516 11.9839 173.453 11.8745C173.391 11.7495 173.344 11.6167 173.312 11.4761C173.266 11.3198 173.234 11.1714 173.219 11.0308C173.203 10.8745 173.203 10.7573 173.219 10.6792L175.469 9.39014L175.609 3.39014C175.641 3.18701 175.766 3.10889 175.984 3.15576C176.203 3.18701 176.43 3.23389 176.664 3.29639C176.695 3.29639 176.742 3.31201 176.805 3.34326C176.883 3.35889 176.938 3.37451 176.969 3.39014C176.938 3.81201 176.898 4.27295 176.852 4.77295C176.82 5.25732 176.789 5.74951 176.758 6.24951C176.727 6.73389 176.703 7.21045 176.688 7.6792C176.688 8.14795 176.711 8.56982 176.758 8.94482L180.273 7.96045C180.336 7.94482 180.383 7.9917 180.414 8.10107C180.461 8.19482 180.5 8.31201 180.531 8.45264C180.578 8.59326 180.609 8.73389 180.625 8.87451C180.641 9.01514 180.648 9.08545 180.648 9.08545L176.664 10.7729C176.664 10.9136 176.672 11.2495 176.688 11.7808C176.719 12.312 176.75 12.9448 176.781 13.6792C176.812 14.3979 176.844 15.1792 176.875 16.0229C176.906 16.8511 176.938 17.6245 176.969 18.3433C177 19.062 177.023 19.6948 177.039 20.2417C177.055 20.7729 177.062 21.1089 177.062 21.2495C177.031 21.7183 176.891 21.9526 176.641 21.9526C176.406 21.9526 176.148 21.8354 175.867 21.6011L175.281 11.4058Z" fill="#FF6188"/>
<path d="M164.242 16.352C164.164 16.3676 164.047 16.391 163.891 16.4223C163.734 16.4535 163.57 16.4613 163.398 16.4457C163.227 16.4301 163.078 16.3832 162.953 16.3051C162.812 16.227 162.742 16.0942 162.742 15.9067C162.742 15.7973 162.766 15.7192 162.812 15.6723C162.859 15.6254 162.938 15.5551 163.047 15.4613C163.391 15.1801 163.68 14.8207 163.914 14.3832C164.164 13.9301 164.391 13.4535 164.594 12.9535C164.797 12.4379 165.008 11.9301 165.227 11.4301C165.461 10.9145 165.727 10.4535 166.023 10.0473C166.32 9.64103 166.688 9.3129 167.125 9.0629C167.562 8.8129 168.102 8.69571 168.742 8.71134C169.008 8.71134 169.305 8.77384 169.633 8.89884C169.961 9.02384 170.266 9.19571 170.547 9.41446C170.828 9.61759 171.062 9.86759 171.25 10.1645C171.438 10.4613 171.531 10.7895 171.531 11.1488C171.609 11.2738 171.531 11.4535 171.297 11.6879C171.078 11.9223 170.773 12.1801 170.383 12.4613C169.992 12.727 169.547 13.0082 169.047 13.3051C168.562 13.5863 168.094 13.852 167.641 14.102C167.188 14.352 166.789 14.5707 166.445 14.7582C166.102 14.9457 165.875 15.0863 165.766 15.1801C165.688 15.3363 165.625 15.516 165.578 15.7192C165.531 15.9223 165.492 16.1176 165.461 16.3051C165.445 16.477 165.43 16.641 165.414 16.7973C165.414 16.9379 165.414 17.0473 165.414 17.1254C165.414 17.4223 165.398 17.7504 165.367 18.1098C165.352 18.4692 165.367 18.8129 165.414 19.141C165.477 19.4535 165.609 19.7192 165.812 19.9379C166.016 20.141 166.359 20.2426 166.844 20.2426C167.359 20.2426 167.844 20.1176 168.297 19.8676C168.75 19.602 169.172 19.2817 169.562 18.9067C169.953 18.5317 170.305 18.1254 170.617 17.6879C170.945 17.2504 171.234 16.8442 171.484 16.4692C171.75 16.0785 171.984 15.7582 172.188 15.5082C172.391 15.2582 172.562 15.1332 172.703 15.1332C172.859 15.1332 173.023 15.1645 173.195 15.227C173.383 15.2738 173.477 15.3988 173.477 15.602C173.477 15.8832 173.359 16.2192 173.125 16.6098C172.906 17.0004 172.609 17.4145 172.234 17.852C171.875 18.2895 171.453 18.727 170.969 19.1645C170.5 19.5863 170.023 19.9692 169.539 20.3129C169.055 20.641 168.578 20.9145 168.109 21.1332C167.641 21.3363 167.227 21.4379 166.867 21.4379C166.164 21.4379 165.633 21.266 165.273 20.9223C164.914 20.5785 164.656 20.1488 164.5 19.6332C164.359 19.1176 164.281 18.5707 164.266 17.9926C164.266 17.3988 164.258 16.852 164.242 16.352ZM168.555 10.0238C168.289 10.0238 168.008 10.1567 167.711 10.4223C167.414 10.6723 167.133 10.9848 166.867 11.3598C166.617 11.7192 166.406 12.0942 166.234 12.4848C166.078 12.8598 166 13.1723 166 13.4223C166.234 13.4223 166.57 13.3363 167.008 13.1645C167.461 12.977 167.906 12.7504 168.344 12.4848C168.781 12.2192 169.164 11.9379 169.492 11.641C169.82 11.3442 169.984 11.0629 169.984 10.7973C169.984 10.6567 169.93 10.5395 169.82 10.4457C169.711 10.352 169.578 10.2738 169.422 10.2113C169.281 10.1488 169.133 10.102 168.977 10.0707C168.82 10.0395 168.68 10.0238 168.555 10.0238Z" fill="#FF6188"/>
<path d="M160.75 20.2188C160.859 19.5 160.93 18.6016 160.961 17.5234C161.008 16.4453 161.023 15.2969 161.008 14.0781C161.008 12.8594 160.984 11.6016 160.938 10.3047C160.891 9.00781 160.828 7.78125 160.75 6.625C160.672 5.45312 160.578 4.40625 160.469 3.48438C160.375 2.5625 160.273 1.83594 160.164 1.30469C160.305 1.21094 160.422 1.14062 160.516 1.09375C160.625 1.03125 160.75 1 160.891 1C161 1 161.094 1.02344 161.172 1.07031C161.25 1.10156 161.312 1.17969 161.359 1.30469C161.672 4.36719 161.883 7.45312 161.992 10.5625C162.117 13.6719 162.211 16.7656 162.273 19.8438C162.273 19.9844 162.273 20.1797 162.273 20.4297C162.273 20.6641 162.266 20.7891 162.25 20.8047C162.031 20.9141 161.836 20.9688 161.664 20.9688C161.492 20.9531 161.336 20.9062 161.195 20.8281C161.055 20.7344 160.945 20.6328 160.867 20.5234C160.789 20.4141 160.75 20.3125 160.75 20.2188Z" fill="#FF6188"/>
<path d="M148.75 27.5781C148.922 25.9375 149.016 24.375 149.031 22.8906C149.062 21.4219 149.055 19.9688 149.008 18.5312C148.977 17.0938 148.922 15.6406 148.844 14.1719C148.766 12.7031 148.719 11.1484 148.703 9.50781C148.75 9.28906 148.805 9.125 148.867 9.01562C148.945 8.89062 149.141 8.85938 149.453 8.92188C149.781 9 149.977 9.1875 150.039 9.48438C150.102 9.76562 150.117 10.0859 150.086 10.4453C150.055 10.8047 150.008 11.1641 149.945 11.5234C149.883 11.8828 149.883 12.1719 149.945 12.3906C150.445 12.0312 150.977 11.6562 151.539 11.2656C152.102 10.875 152.688 10.5312 153.297 10.2344C153.906 9.92188 154.539 9.69531 155.195 9.55469C155.852 9.39844 156.508 9.39062 157.164 9.53125C157.977 9.71875 158.539 10 158.852 10.375C159.18 10.7344 159.305 11.1562 159.227 11.6406C159.164 12.1094 158.945 12.6328 158.57 13.2109C158.195 13.7734 157.734 14.3438 157.188 14.9219C156.641 15.5 156.031 16.0703 155.359 16.6328C154.688 17.1953 154.031 17.7188 153.391 18.2031C152.75 18.6719 152.148 19.0859 151.586 19.4453C151.039 19.8047 150.602 20.0703 150.273 20.2422C150.258 20.4297 150.234 20.7266 150.203 21.1328C150.188 21.5234 150.164 21.9688 150.133 22.4688C150.117 22.9688 150.094 23.4922 150.062 24.0391C150.047 24.5859 150.023 25.1094 149.992 25.6094C149.977 26.1094 149.953 26.5547 149.922 26.9453C149.906 27.3359 149.898 27.625 149.898 27.8125C149.867 27.8281 149.812 27.8438 149.734 27.8594C149.656 27.875 149.562 27.8828 149.453 27.8828C149.344 27.8984 149.242 27.9062 149.148 27.9062C149.055 27.9219 148.992 27.9219 148.961 27.9062C148.914 27.9062 148.867 27.8594 148.82 27.7656C148.773 27.6875 148.75 27.625 148.75 27.5781ZM150.062 14.7344C150.016 14.9531 150 15.2266 150.016 15.5547C150.047 15.8672 150.078 16.2031 150.109 16.5625C150.156 16.9062 150.203 17.2422 150.25 17.5703C150.297 17.8984 150.328 18.1797 150.344 18.4141C150.938 17.9609 151.625 17.5 152.406 17.0312C153.203 16.5625 153.969 16.0547 154.703 15.5078C155.453 14.9609 156.117 14.3516 156.695 13.6797C157.273 13.0078 157.656 12.25 157.844 11.4062C157.906 11.0781 157.875 10.8594 157.75 10.75C157.641 10.625 157.445 10.5391 157.164 10.4922C156.57 10.3672 155.891 10.4141 155.125 10.6328C154.359 10.8359 153.617 11.1406 152.898 11.5469C152.195 11.9531 151.578 12.4375 151.047 13C150.516 13.5625 150.188 14.1406 150.062 14.7344Z" fill="#FF6188"/>
<path d="M135.719 21.3438C135.672 20.9062 135.633 20.3125 135.602 19.5625C135.57 18.8125 135.539 18 135.508 17.125C135.477 16.2344 135.438 15.3125 135.391 14.3594C135.359 13.4062 135.32 12.5 135.273 11.6406C135.227 10.7812 135.164 10 135.086 9.29688C135.023 8.59375 134.953 8.03125 134.875 7.60938C134.875 7.29688 134.945 7.11719 135.086 7.07031C135.227 7.00781 135.406 6.97656 135.625 6.97656C135.656 6.97656 135.727 6.97656 135.836 6.97656C135.945 6.97656 136.023 6.98438 136.07 7C136.211 7.46875 136.297 8.07812 136.328 8.82812C136.375 9.5625 136.406 10.3672 136.422 11.2422C136.453 12.1172 136.477 13.0234 136.492 13.9609C136.523 14.8984 136.578 15.7891 136.656 16.6328C136.875 15.3984 137.055 14.375 137.195 13.5625C137.352 12.75 137.492 12.1016 137.617 11.6172C137.758 11.1172 137.883 10.75 137.992 10.5156C138.117 10.2656 138.25 10.1016 138.391 10.0234C138.547 9.94531 138.711 9.91406 138.883 9.92969C139.07 9.92969 139.289 9.92969 139.539 9.92969C139.82 9.92969 140.047 10.0391 140.219 10.2578C140.406 10.4766 140.547 10.7578 140.641 11.1016C140.75 11.4453 140.828 11.8203 140.875 12.2266C140.938 12.6328 140.992 13.0312 141.039 13.4219C141.086 13.7969 141.133 14.1406 141.18 14.4531C141.242 14.7656 141.336 14.9844 141.461 15.1094C141.852 13.9531 142.188 13.0078 142.469 12.2734C142.75 11.5391 142.992 10.9609 143.195 10.5391C143.398 10.1016 143.578 9.78906 143.734 9.60156C143.891 9.41406 144.031 9.30469 144.156 9.27344C144.281 9.22656 144.391 9.21875 144.484 9.25C144.594 9.28125 144.703 9.29688 144.812 9.29688C145.234 9.29688 145.555 9.51562 145.773 9.95312C146.023 10.6562 146.195 11.3281 146.289 11.9688C146.383 12.5938 146.438 13.2031 146.453 13.7969C146.469 14.375 146.469 14.9297 146.453 15.4609C146.453 15.9922 146.469 16.5078 146.5 17.0078C146.547 17.5078 146.633 18 146.758 18.4844C146.898 18.9688 147.133 19.4453 147.461 19.9141C147.336 20.1641 147.211 20.3359 147.086 20.4297C146.961 20.5078 146.789 20.5469 146.57 20.5469C146.383 20.5469 146.219 20.4844 146.078 20.3594C145.938 20.2188 145.82 20.0547 145.727 19.8672C145.633 19.6641 145.555 19.4609 145.492 19.2578C145.445 19.0547 145.398 18.875 145.352 18.7188C145.289 16.4844 145.188 14.7734 145.047 13.5859C144.922 12.3828 144.727 11.75 144.461 11.6875C144.195 11.625 143.852 12.1484 143.43 13.2578C143.023 14.3516 142.516 16.0703 141.906 18.4141C141.859 18.4922 141.789 18.5391 141.695 18.5547C141.602 18.5703 141.5 18.5781 141.391 18.5781C141.297 18.5781 141.195 18.5781 141.086 18.5781C140.992 18.5625 140.898 18.5625 140.805 18.5781C140.414 16.2812 140.086 14.6328 139.82 13.6328C139.57 12.6172 139.312 12.2266 139.047 12.4609C138.781 12.6953 138.484 13.5391 138.156 14.9922C137.828 16.4297 137.406 18.4531 136.891 21.0625L135.719 21.3438Z" fill="#FF6188"/>
<path d="M131.969 20.9453C131.969 19.9297 131.945 18.8594 131.898 17.7344C131.867 16.6094 131.828 15.4766 131.781 14.3359C131.75 13.1797 131.742 12.0469 131.758 10.9375C131.773 9.82812 131.844 8.78906 131.969 7.82031C132 7.80469 132.07 7.79688 132.18 7.79688C132.305 7.78125 132.391 7.77344 132.438 7.77344C132.656 7.77344 132.828 7.8125 132.953 7.89062C133.094 7.95312 133.164 8.10156 133.164 8.33594C133.164 9.25781 133.156 10.2656 133.141 11.3594C133.141 12.4375 133.133 13.5391 133.117 14.6641C133.117 15.7734 133.117 16.875 133.117 17.9688C133.117 19.0625 133.133 20.0547 133.164 20.9453C133.18 21.2109 133.125 21.3828 133 21.4609C132.891 21.5547 132.75 21.6016 132.578 21.6016C132.391 21.6016 132.234 21.5547 132.109 21.4609C131.984 21.3828 131.938 21.2109 131.969 20.9453ZM131.453 4.16406C131.453 3.97656 131.516 3.85156 131.641 3.78906C131.766 3.72656 131.906 3.69531 132.062 3.69531C132.375 3.69531 132.57 3.79688 132.648 4C132.727 4.20312 132.766 4.4375 132.766 4.70312C132.672 4.875 132.555 5 132.414 5.07812C132.273 5.14062 132.125 5.15625 131.969 5.125C131.828 5.07812 131.703 4.97656 131.594 4.82031C131.5 4.66406 131.453 4.44531 131.453 4.16406Z" fill="#FF6188"/>
<path d="M120.836 20.3125C120.867 20.1562 121.062 20.0078 121.422 19.8672C121.781 19.7266 122.227 19.5781 122.758 19.4219C123.289 19.2656 123.875 19.0938 124.516 18.9062C125.156 18.7188 125.773 18.5078 126.367 18.2734C126.961 18.0391 127.5 17.7734 127.984 17.4766C128.484 17.1797 128.852 16.8359 129.086 16.4453C129.086 16.2109 128.93 16.0312 128.617 15.9062C128.32 15.7812 127.914 15.6797 127.398 15.6016C126.898 15.5078 126.32 15.4375 125.664 15.3906C125.023 15.3281 124.359 15.25 123.672 15.1562C123 15.0469 122.336 14.9219 121.68 14.7812C121.039 14.625 120.461 14.4141 119.945 14.1484C119.445 13.8672 119.039 13.5156 118.727 13.0938C118.43 12.6719 118.281 12.1562 118.281 11.5469C118.281 10.9375 118.414 10.3359 118.68 9.74219C118.945 9.13281 119.297 8.54688 119.734 7.98438C120.188 7.42188 120.695 6.89844 121.258 6.41406C121.836 5.92969 122.438 5.50781 123.062 5.14844C123.688 4.78906 124.305 4.50781 124.914 4.30469C125.539 4.10156 126.117 4 126.648 4C126.789 4 126.938 4 127.094 4C127.25 3.98438 127.383 3.99219 127.492 4.02344C127.617 4.03906 127.719 4.09375 127.797 4.1875C127.875 4.28125 127.914 4.42188 127.914 4.60938C127.914 5.0625 127.766 5.39062 127.469 5.59375C127.172 5.78125 126.812 5.875 126.391 5.875L125.477 5.21875C125.117 5.21875 124.719 5.32031 124.281 5.52344C123.859 5.72656 123.422 6 122.969 6.34375C122.531 6.67188 122.102 7.05469 121.68 7.49219C121.258 7.92969 120.883 8.38281 120.555 8.85156C120.242 9.32031 119.984 9.78906 119.781 10.2578C119.594 10.7266 119.5 11.1484 119.5 11.5234C119.5 12.0703 119.648 12.5156 119.945 12.8594C120.258 13.1875 120.664 13.4531 121.164 13.6562C121.68 13.8438 122.266 13.9844 122.922 14.0781C123.578 14.1719 124.242 14.25 124.914 14.3125C125.586 14.375 126.25 14.4375 126.906 14.5C127.562 14.5469 128.141 14.6406 128.641 14.7812C129.156 14.9219 129.562 15.1094 129.859 15.3438C130.172 15.5781 130.328 15.8984 130.328 16.3047C130.5 16.5547 130.461 16.8438 130.211 17.1719C129.977 17.4844 129.602 17.8047 129.086 18.1328C128.586 18.4453 127.984 18.7656 127.281 19.0938C126.594 19.4062 125.883 19.6953 125.148 19.9609C124.414 20.2109 123.703 20.4297 123.016 20.6172C122.328 20.7891 121.742 20.8984 121.258 20.9453C121.117 20.9453 120.992 20.8984 120.883 20.8047C120.789 20.7109 120.773 20.5469 120.836 20.3125Z" fill="#FF6188"/>
</svg>
